<svg width="500" height="500" viewBox="0 0 500 500" fill="none" xmlns="http://www.w3.org/2000/svg">
<circle cx="250" cy="250" r="250" fill="white"/>
<path d="M250.093 135.335H135.467C136.958 174.931 144.786 222.559 167.525 256.552C170.134 260.474 173.116 264.397 176.285 267.945C193.059 287.183 216.544 299.697 249.348 299.884H250.093C263.699 299.884 276.001 294.467 285.134 285.502C294.08 276.35 299.672 264.023 299.672 250.202C299.672 236.38 294.08 224.053 285.134 215.088C276.001 206.123 263.699 200.52 250.093 200.52H200.328V265.33C193.619 259.914 187.841 253.377 182.995 246.093C179.826 241.236 176.844 236.007 174.235 230.404V174.371H250.093C270.968 174.371 289.98 182.776 303.586 196.597C317.378 210.232 325.765 229.283 325.765 250.202C325.765 271.12 317.378 290.171 303.586 303.993C289.98 317.814 270.968 326.219 250.093 326.219H248.975C200.142 326.032 167.338 303.432 145.718 271.12C118.319 230.03 109 174.371 109 122.261V109H250.093C288.861 109 324.088 124.876 349.623 150.464C375.157 176.052 391 211.353 391 250.202C391 289.051 375.157 324.538 349.623 350.126C324.088 375.714 288.861 391.59 250.093 391.59C211.325 391.59 175.912 375.714 150.377 350.126C124.843 324.538 109 289.238 109 250.202V239.182C119.438 295.028 168.27 365.255 250.093 365.255C281.592 365.255 310.295 352.367 331.171 331.449C352.046 310.53 364.72 281.953 364.72 250.202C364.72 218.45 351.859 189.873 331.171 168.955C310.295 148.223 281.592 135.335 250.093 135.335Z" fill="url(#paint0_linear_78_15)"/>
<defs>
<linearGradient id="paint0_linear_78_15" x1="404.952" y1="264.541" x2="109" y2="264.541" gradientUnits="userSpaceOnUse">
<stop stop-color="#FF0000"/>
<stop offset="1" stop-color="#000E3F"/>
</linearGradient>
</defs>
</svg>
